<?xml version="1.0" encoding="utf-8"?>
<!-- Generator: Adobe Illustrator 17.0.0, SVG Export Plug-In . SVG Version: 6.00 Build 0)  -->
<!DOCTYPE svg PUBLIC "-//W3C//DTD SVG 1.1//EN" "http://www.w3.org/Graphics/SVG/1.1/DTD/svg11.dtd">
<svg version="1.1" id="Layer_1" xmlns="http://www.w3.org/2000/svg" xmlns:xlink="http://www.w3.org/1999/xlink" x="0px" y="0px"
	 width="100px" height="100px" viewBox="0 0 100 100" enable-background="new 0 0 100 100" xml:space="preserve">
<g>
	<defs>
		<rect id="SVGID_1_" width="100" height="100"/>
	</defs>
	<clipPath id="SVGID_2_">
		<use xlink:href="#SVGID_1_"  overflow="visible"/>
	</clipPath>
	<path clip-path="url(#SVGID_2_)" fill="#00CE00" d="M41.106,49.299c0-1.171-0.645-2.266-1.816-2.266
		c-0.72,0-1.336,0.51-1.651,1.215v2.086c0.315,0.691,0.931,1.201,1.651,1.201C40.461,51.535,41.106,50.454,41.106,49.299
		 M54.621,49.299c0-1.186-0.72-2.266-1.936-2.266c-1.215,0-1.936,1.08-1.936,2.266c0,1.185,0.721,2.236,1.936,2.236
		C53.901,51.535,54.621,50.484,54.621,49.299 M62.706,47.964c0-0.676-0.555-1.186-1.441-1.186c-0.871,0-1.426,0.51-1.426,1.186
		c0,0.661,0.6,1.111,1.426,1.111C62.106,49.075,62.706,48.625,62.706,47.964 M65.104,45.714l-1.035,0.929
		c0.24,0.375,0.375,0.825,0.375,1.291c0,1.575-1.259,2.639-3.179,2.639c-0.105,0-0.21,0-0.315-0.015l-0.676,1.261
		c0.496-0.164,1.036-0.269,1.576-0.269c1.845,0,3.134,0.989,3.134,2.549c0,1.605-1.514,2.804-3.734,2.804
		c-1.726,0-3.179-0.734-4.124-1.723l1.17-1.276c0.719,0.78,1.708,1.306,2.894,1.306c0.945,0,1.801-0.375,1.801-1.081
		c0-0.646-0.555-1.111-1.606-1.111c-0.855,0-1.441,0.18-1.906,0.405l-1.273-0.929l1.214-2.356c-0.855-0.449-1.364-1.258-1.364-2.204
		c0-1.576,1.259-2.684,3.209-2.684c0.585,0,1.126,0.12,1.576,0.344l0.974-1.094L65.104,45.714z M56.599,49.299
		c0,2.221-1.513,4.019-3.914,4.019c-2.4,0-3.914-1.798-3.914-4.019c0-2.236,1.514-4.049,3.914-4.049
		C55.086,45.25,56.599,47.063,56.599,49.299 M46.894,53.123h-1.933V41.86h1.933V53.123z M43.084,49.299
		c0,2.221-1.378,4.019-3.419,4.019c-0.84,0-1.515-0.33-2.026-0.869v0.674h-1.918V41.86h1.918v4.259
		c0.511-0.54,1.186-0.869,2.026-0.869C41.706,45.25,43.084,47.063,43.084,49.299 M80.798,49.102
		c0-12.648-13.789-22.901-30.798-22.901S19.202,36.454,19.202,49.102c0,5.881,3.006,11.226,7.906,15.281l-5.142,11.569l15.288-6.02
		c3.888,1.318,8.194,2.071,12.746,2.071C67.009,72.003,80.798,61.75,80.798,49.102"/>
</g>
</svg>
