<?xml version="1.0" encoding="utf-8"?>
<!-- Generator: Adobe Illustrator 17.0.0, SVG Export Plug-In . SVG Version: 6.00 Build 0)  -->
<!DOCTYPE svg PUBLIC "-//W3C//DTD SVG 1.1//EN" "http://www.w3.org/Graphics/SVG/1.1/DTD/svg11.dtd">
<svg version="1.1" id="Layer_1" xmlns="http://www.w3.org/2000/svg" xmlns:xlink="http://www.w3.org/1999/xlink" x="0px" y="0px"
	 width="100px" height="100px" viewBox="0 0 100 100" enable-background="new 0 0 100 100" xml:space="preserve">
<g>
	<defs>
		<rect id="SVGID_1_" width="100" height="100"/>
	</defs>
	<clipPath id="SVGID_2_">
		<use xlink:href="#SVGID_1_"  overflow="visible"/>
	</clipPath>
	<path clip-path="url(#SVGID_2_)" fill="#FF0000" d="M52.587,50.673c0-1.186-0.72-2.266-1.936-2.266
		c-1.215,0-1.936,1.08-1.936,2.266c0,1.185,0.721,2.236,1.936,2.236C51.867,52.909,52.587,51.858,52.587,50.673 M63.79,49.609h3.345
		c-0.165-0.706-0.675-1.352-1.695-1.352C64.525,48.257,64.015,48.843,63.79,49.609 M69.025,50.942h-5.37
		c0.09,1.021,0.675,2.057,1.95,2.057c0.795,0,1.38-0.466,1.62-1.096l1.755,0.51c-0.45,1.32-1.725,2.279-3.39,2.279
		c-2.594,0-3.898-1.918-3.898-4.02c0-2.085,1.244-4.048,3.733-4.048c2.43,0,3.6,1.798,3.6,3.764V50.942z M60.955,46.729
		l-0.165,1.843c-0.225-0.06-0.465-0.105-0.705-0.105c-0.885,0-1.5,0.57-1.695,1.245v4.785h-1.948v-7.678h1.948v0.644
		c0.36-0.54,0.93-0.839,1.83-0.839C60.37,46.624,60.7,46.654,60.955,46.729 M54.565,50.673c0,2.221-1.513,4.019-3.914,4.019
		c-2.4,0-3.914-1.798-3.914-4.019c0-2.236,1.514-4.049,3.914-4.049C53.052,46.624,54.565,48.437,54.565,50.673 M43.376,48.482v3.481
		c0,0.661,0.42,0.931,0.87,0.931c0.315,0,0.63-0.105,0.945-0.255l0.465,1.633c-0.435,0.255-1.155,0.39-1.68,0.39
		c-1.05,0-1.799-0.375-2.234-1.124c-0.225-0.404-0.3-0.884-0.3-1.575v-3.496h-1.455v-1.648h1.53v-1.845l1.859-0.51v2.355h2.13v1.663
		H43.376z M35.036,48.827c0,0.39,0.24,0.66,0.69,0.765c0.195,0.046,0.466,0.106,0.856,0.166c1.799,0.345,2.594,1.14,2.594,2.49
		c0,1.665-1.559,2.444-3.089,2.444c-1.741,0-3.149-1.004-3.569-2.429l1.694-0.525c0.269,0.796,0.959,1.396,1.83,1.396
		c0.555,0,1.171-0.255,1.171-0.901c0-0.495-0.391-0.78-1.111-0.915c-0.961-0.18-1.261-0.315-1.516-0.42
		c-1.034-0.435-1.483-1.17-1.483-2.026c0-1.274,1.168-2.248,2.728-2.248c1.546,0,2.625,0.734,3,1.948l-1.663,0.51
		c-0.226-0.615-0.646-0.975-1.262-0.975C35.411,48.107,35.036,48.392,35.036,48.827 M86.432,41.685l-11.624-3.632l4.408-11.352
		l-12.048,1.772l-0.954-12.141l-10.087,6.824L50,12.632l-6.127,10.524l-10.086-6.824l-0.954,12.141l-12.049-1.772l4.408,11.352
		l-11.623,3.632L22.466,50l-8.897,8.316l11.623,3.631l-4.408,11.352l12.049-1.771l0.954,12.14l10.086-6.823L50,87.369l6.127-10.524
		l10.087,6.823l0.954-12.14l12.048,1.771l-4.408-11.352l11.624-3.631L77.535,50L86.432,41.685z"/>
</g>
</svg>
