<?xml version="1.0" encoding="utf-8"?>
<!-- Generator: Adobe Illustrator 17.0.0, SVG Export Plug-In . SVG Version: 6.00 Build 0)  -->
<!DOCTYPE svg PUBLIC "-//W3C//DTD SVG 1.1//EN" "http://www.w3.org/Graphics/SVG/1.1/DTD/svg11.dtd">
<svg version="1.1" id="Layer_1" xmlns="http://www.w3.org/2000/svg" xmlns:xlink="http://www.w3.org/1999/xlink" x="0px" y="0px"
	 width="50px" height="50px" viewBox="0 0 50 50" enable-background="new 0 0 50 50" xml:space="preserve">
<g>
	<defs>
		<rect id="SVGID_1_" width="50" height="50"/>
	</defs>
	<clipPath id="SVGID_2_">
		<use xlink:href="#SVGID_1_"  overflow="visible"/>
	</clipPath>
	<path clip-path="url(#SVGID_2_)" fill="#B2B2B2" d="M23.055,21.132c0,0.767-0.622,1.389-1.389,1.389
		c-0.768,0-1.39-0.622-1.39-1.389c0-0.768,0.622-1.39,1.39-1.39C22.433,19.742,23.055,20.364,23.055,21.132 M33.949,25.634
		c-5.141-0.611-7.809-3.724-9.671-6.475c-0.73-1.079-1.834-1.279-2.279-1.279c-1.574,0-2.591,0.71-3.214,1.911l-2.733,1.341
		l2.031,1.241c-0.069,0.587-0.113,1.202-0.113,1.872c0,2.917,1.584,6.697,7.503,6.697C28.808,30.942,32.447,27.801,33.949,25.634"/>
</g>
</svg>
