<?xml version="1.0" encoding="utf-8"?>
<!-- Generator: Adobe Illustrator 17.0.0, SVG Export Plug-In . SVG Version: 6.00 Build 0)  -->
<!DOCTYPE svg PUBLIC "-//W3C//DTD SVG 1.1//EN" "http://www.w3.org/Graphics/SVG/1.1/DTD/svg11.dtd">
<svg version="1.1" id="Layer_1" xmlns="http://www.w3.org/2000/svg" xmlns:xlink="http://www.w3.org/1999/xlink" x="0px" y="0px"
	 width="100px" height="100px" viewBox="0 0 100 100" enable-background="new 0 0 100 100" xml:space="preserve">
<polyline fill="none" stroke="#0000FF" stroke-width="2.491" points="30.124,70.751 30.124,77.069 82.499,77.069 82.499,38.371 
	75.911,38.371 "/>
<polyline fill="none" stroke="#0000FF" stroke-width="2.491" points="23.806,64.433 23.806,70.751 76.181,70.751 76.181,32.052 
	69.593,32.052 "/>
<rect x="17.218" y="25.86" fill="none" stroke="#0000FF" stroke-width="2.491" width="52.375" height="38.699"/>
<g>
	<defs>
		<rect id="SVGID_1_" width="100" height="100"/>
	</defs>
	<clipPath id="SVGID_2_">
		<use xlink:href="#SVGID_1_"  overflow="visible"/>
	</clipPath>
	<path clip-path="url(#SVGID_2_)" fill="#0000FF" d="M55.627,49.805v-2.52l0.855-0.9l2.295,3.42h2.19l-3.18-4.694l2.775-2.984
		h-2.325l-2.61,2.819v-6.404h-1.919v11.263H55.627z M51.517,43.775c0.24,0,0.48,0.045,0.705,0.105l0.165-1.844
		c-0.255-0.074-0.585-0.104-0.735-0.104c-0.9,0-1.47,0.299-1.83,0.839v-0.644h-1.948v7.678h1.948V45.02
		C50.017,44.345,50.632,43.775,51.517,43.775 M40.147,45.981c0-1.186,0.72-2.266,1.936-2.266c1.215,0,1.936,1.08,1.936,2.266
		c0,1.185-0.721,2.236-1.936,2.236C40.867,48.217,40.147,47.166,40.147,45.981 M45.997,45.981c0-2.236-1.514-4.049-3.914-4.049
		c-2.401,0-3.914,1.813-3.914,4.049c0,2.221,1.513,4.019,3.914,4.019C44.483,50,45.997,48.202,45.997,45.981 M31.433,44.286
		l1.725,5.519h2.084l1.95-7.663h-1.965l-1.169,5.293l-1.47-5.188h-2.295l-1.485,5.188l-1.169-5.293h-1.98l1.95,7.663h2.069
		L31.433,44.286z"/>
</g>
</svg>
